<?xml version="1.0" encoding="UTF-8" standalone="no"?><svg xmlns="http://www.w3.org/2000/svg" xmlns:xlink="http://www.w3.org/1999/xlink" contentScriptType="application/ecmascript" contentStyleType="text/css" height="702px" preserveAspectRatio="none" style="width:321px;height:702px;" version="1.1" viewBox="0 0 321 702" width="321px" zoomAndPan="magnify"><defs><filter height="300%" id="ft7o271" width="300%" x="-1" y="-1"><feGaussianBlur result="blurOut" stdDeviation="2.0"/><feColorMatrix in="blurOut" result="blurOut2" type="matrix" values="0 0 0 0 0 0 0 0 0 0 0 0 0 0 0 0 0 0 .4 0"/><feOffset dx="4.0" dy="4.0" in="blurOut2" result="blurOut3"/><feBlend in="SourceGraphic" in2="blurOut3" mode="normal"/></filter></defs><g><rect fill="#ADD8E6" filter="url(#ft7o271)" height="50" rx="12.5" ry="12.5" style="stroke: #A80036; stroke-width: 1.5;" width="66" x="59" y="643"/><line style="stroke: #A80036; stroke-width: 1.5;" x1="59" x2="125" y1="669.4883" y2="669.4883"/><text fill="#000000" font-family="sans-serif" font-size="14" lengthAdjust="spacingAndGlyphs" textLength="46" x="69" y="661.5352">Asleep</text><rect fill="#FEFECE" filter="url(#ft7o271)" height="50" rx="12.5" ry="12.5" style="stroke: #A80036; stroke-width: 1.5;" width="65" x="74.5" y="8"/><line style="stroke: #A80036; stroke-width: 1.5;" x1="74.5" x2="139.5" y1="34.4883" y2="34.4883"/><text fill="#000000" font-family="sans-serif" font-size="14" lengthAdjust="spacingAndGlyphs" textLength="45" x="84.5" y="26.5352">Awake</text><rect fill="#FEFECE" filter="url(#ft7o271)" height="50" rx="12.5" ry="12.5" style="stroke: #A80036; stroke-width: 1.5;" width="75" x="69.5" y="135"/><line style="stroke: #A80036; stroke-width: 1.5;" x1="69.5" x2="144.5" y1="161.4883" y2="161.4883"/><text fill="#000000" font-family="sans-serif" font-size="14" lengthAdjust="spacingAndGlyphs" textLength="55" x="79.5" y="153.5352">Dressed</text><rect fill="#FEFECE" filter="url(#ft7o271)" height="50" rx="12.5" ry="12.5" style="stroke: #A80036; stroke-width: 1.5;" width="50" x="180" y="135"/><line style="stroke: #A80036; stroke-width: 1.5;" x1="180" x2="230" y1="161.4883" y2="161.4883"/><text fill="#000000" font-family="sans-serif" font-size="14" lengthAdjust="spacingAndGlyphs" textLength="25" x="192.5" y="153.5352">Fed</text><rect fill="#FEFECE" filter="url(#ft7o271)" height="50" rx="12.5" ry="12.5" style="stroke: #A80036; stroke-width: 1.5;" width="61" x="174.5" y="262"/><line style="stroke: #A80036; stroke-width: 1.5;" x1="174.5" x2="235.5" y1="288.4883" y2="288.4883"/><text fill="#000000" font-family="sans-serif" font-size="14" lengthAdjust="spacingAndGlyphs" textLength="41" x="184.5" y="280.5352">Ready</text><rect fill="#FEFECE" filter="url(#ft7o271)" height="50" rx="12.5" ry="12.5" style="stroke: #A80036; stroke-width: 1.5;" width="55" x="188.5" y="389"/><line style="stroke: #A80036; stroke-width: 1.5;" x1="188.5" x2="243.5" y1="415.4883" y2="415.4883"/><text fill="#000000" font-family="sans-serif" font-size="14" lengthAdjust="spacingAndGlyphs" textLength="35" x="198.5" y="407.5352">Work</text><rect fill="#FEFECE" filter="url(#ft7o271)" height="50" rx="12.5" ry="12.5" style="stroke: #A80036; stroke-width: 1.5;" width="51" x="59.5" y="389"/><line style="stroke: #A80036; stroke-width: 1.5;" x1="59.5" x2="110.5" y1="415.4883" y2="415.4883"/><text fill="#000000" font-family="sans-serif" font-size="14" lengthAdjust="spacingAndGlyphs" textLength="31" x="69.5" y="407.5352">Cafe</text><rect fill="#FEFECE" filter="url(#ft7o271)" height="50" rx="12.5" ry="12.5" style="stroke: #A80036; stroke-width: 1.5;" width="60" x="158" y="516"/><line style="stroke: #A80036; stroke-width: 1.5;" x1="158" x2="218" y1="542.4883" y2="542.4883"/><text fill="#000000" font-family="sans-serif" font-size="14" lengthAdjust="spacingAndGlyphs" textLength="40" x="168" y="534.5352">Home</text><path d="M70.2778,57.8532 C41.3945,80.6554 6,117.3077 6,160 C6,160 6,160 6,541 C6,581.7412 36.7186,619.1474 61.4375,642.6526 " fill="none" style="stroke: #A80036; stroke-width: 1.0;"/><polygon fill="#A80036" points="74.487,54.5903,64.9232,56.9429,70.5353,57.6536,69.8245,63.2656,74.487,54.5903" style="stroke: #A80036; stroke-width: 1.0;"/><text fill="#000000" font-family="sans-serif" font-size="13" lengthAdjust="spacingAndGlyphs" textLength="37" x="7" y="355.5684">Alarm</text><path d="M107,58.0911 C107,78.7035 107,107.9647 107,129.8484 " fill="none" style="stroke: #A80036; stroke-width: 1.0;"/><polygon fill="#A80036" points="107,134.961,111,125.961,107,129.961,103,125.961,107,134.961" style="stroke: #A80036; stroke-width: 1.0;"/><text fill="#000000" font-family="sans-serif" font-size="13" lengthAdjust="spacingAndGlyphs" textLength="36" x="108" y="101.5684">Dress</text><path d="M128.6809,58.1574 C136.4934,67.4211 145.2816,78.0755 153,88 C163.6307,101.6692 174.9416,117.2016 184.29,130.3319 " fill="none" style="stroke: #A80036; stroke-width: 1.0;"/><polygon fill="#A80036" points="187.3813,134.6866,185.4333,125.0323,184.487,130.6095,178.9099,129.6632,187.3813,134.6866" style="stroke: #A80036; stroke-width: 1.0;"/><text fill="#000000" font-family="sans-serif" font-size="13" lengthAdjust="spacingAndGlyphs" textLength="19" x="166" y="101.5684">Eat</text><path d="M126.3616,185.0911 C142.5357,206.0514 165.6108,235.9549 182.5835,257.95 " fill="none" style="stroke: #A80036; stroke-width: 1.0;"/><polygon fill="#A80036" points="185.6786,261.961,183.3471,252.3921,182.624,258.0025,177.0136,257.2794,185.6786,261.961" style="stroke: #A80036; stroke-width: 1.0;"/><text fill="#000000" font-family="sans-serif" font-size="13" lengthAdjust="spacingAndGlyphs" textLength="19" x="163" y="228.5684">Eat</text><path d="M205,185.0911 C205,205.7035 205,234.9647 205,256.8484 " fill="none" style="stroke: #A80036; stroke-width: 1.0;"/><polygon fill="#A80036" points="205,261.961,209,252.961,205,256.961,201,252.961,205,261.961" style="stroke: #A80036; stroke-width: 1.0;"/><text fill="#000000" font-family="sans-serif" font-size="13" lengthAdjust="spacingAndGlyphs" textLength="36" x="206" y="228.5684">Dress</text><path d="M207.1732,312.0911 C208.9586,332.7035 211.493,361.9647 213.3884,383.8484 " fill="none" style="stroke: #A80036; stroke-width: 1.0;"/><polygon fill="#A80036" points="213.8313,388.961,217.0395,379.6493,213.3997,383.9797,209.0694,380.3398,213.8313,388.961" style="stroke: #A80036; stroke-width: 1.0;"/><text fill="#000000" font-family="sans-serif" font-size="13" lengthAdjust="spacingAndGlyphs" textLength="65" x="213" y="355.5684">GoToWork</text><path d="M243.632,403.2946 C261.4,400.5018 278.5,404.0703 278.5,414 C278.5,422.9988 264.4559,426.7732 248.5981,425.3232 " fill="none" style="stroke: #A80036; stroke-width: 1.0;"/><polygon fill="#A80036" points="243.632,424.7054,252.0693,429.7859,248.5937,425.3227,253.057,421.8471,243.632,424.7054" style="stroke: #A80036; stroke-width: 1.0;"/><text fill="#000000" font-family="sans-serif" font-size="13" lengthAdjust="spacingAndGlyphs" textLength="36" x="284.5" y="419.0684">Think</text><path d="M115.5838,429.0804 C120.9388,431.118 126.545,432.8876 132,434 C147.2419,437.1081 151.7355,436.9952 167,434 C174.1229,432.6023 181.5159,430.1627 188.334,427.4572 " fill="none" style="stroke: #A80036; stroke-width: 1.0;"/><polygon fill="#A80036" points="110.748,427.1449,117.6172,434.2029,115.39,429.0029,120.5899,426.7757,110.748,427.1449" style="stroke: #A80036; stroke-width: 1.0;"/><text fill="#000000" font-family="sans-serif" font-size="13" lengthAdjust="spacingAndGlyphs" textLength="33" x="133" y="430.5684">Yawn</text><path d="M110.5691,414 C131.2491,414 160.5166,414 182.9699,414 " fill="none" style="stroke: #A80036; stroke-width: 1.0;"/><polygon fill="#A80036" points="188.2308,414,179.2308,410,183.2308,414,179.2308,418,188.2308,414" style="stroke: #A80036; stroke-width: 1.0;"/><text fill="#000000" font-family="sans-serif" font-size="13" lengthAdjust="spacingAndGlyphs" textLength="41" x="129" y="407.5684">Coffee</text><path d="M210.4681,439.0911 C205.9236,459.7035 199.4724,488.9647 194.6476,510.8484 " fill="none" style="stroke: #A80036; stroke-width: 1.0;"/><polygon fill="#A80036" points="193.5204,515.961,199.3644,508.0333,194.5969,511.0783,191.552,506.3109,193.5204,515.961" style="stroke: #A80036; stroke-width: 1.0;"/><text fill="#000000" font-family="sans-serif" font-size="13" lengthAdjust="spacingAndGlyphs" textLength="54" x="205" y="482.5684">GoHome</text><path d="M176.7574,566.1342 C169.7599,580.5123 160.0099,598.5123 149,613 C142.0641,622.1268 133.6015,631.1414 125.3418,639.1493 " fill="none" style="stroke: #A80036; stroke-width: 1.0;"/><polygon fill="#A80036" points="121.3109,642.9956,130.5836,639.6763,124.9282,639.5438,125.0607,633.8885,121.3109,642.9956" style="stroke: #A80036; stroke-width: 1.0;"/><text fill="#000000" font-family="sans-serif" font-size="13" lengthAdjust="spacingAndGlyphs" textLength="30" x="162" y="609.5684">Read</text><path d="M157.6899,548.0669 C133.3124,555.5213 100.638,569.9219 85,596 C77.5794,608.3747 78.2293,624.1438 81.2004,637.7682 " fill="none" style="stroke: #A80036; stroke-width: 1.0;"/><polygon fill="#A80036" points="82.3894,642.6805,84.1598,632.9921,81.2131,637.8208,76.3843,634.8742,82.3894,642.6805" style="stroke: #A80036; stroke-width: 1.0;"/><text fill="#000000" font-family="sans-serif" font-size="13" lengthAdjust="spacingAndGlyphs" textLength="54" x="86" y="609.5684">WatchTV</text></g></svg>